<svg viewBox="0 0 20 22" version="1.1" xmlns="http://www.w3.org/2000/svg" xmlns:xlink="http://www.w3.org/1999/xlink">
    <g stroke="none" stroke-width="1" fill="none" fill-rule="evenodd">
        <g transform="translate(-178.000000, -930.000000)" fill="#71ACAB">
            <g transform="translate(188.000000, 940.980799) rotate(-180.000000) translate(-188.000000, -940.980799) translate(178.000000, 930.000000)">
                <path d="M9.73158259,21.9615974 L3.32693265,21.9615974 C2.44520398,21.9607202 1.59945599,21.6097864 0.975611054,20.9859866 C0.351766347,20.3621868 0.000898618475,19.516439 3.55271368e-15,18.6346655 L3.55271368e-15,3.3269322 C0.00087728162,2.44520353 0.351811042,1.59945554 0.975611054,0.97561083 C1.59941107,0.351766122 2.44515906,0.000898393876 3.32693265,0 L9.73158259,0 C10.6133113,0.000878180014 11.4590593,0.351811042 12.082904,0.97561083 C12.7067487,1.59941062 13.0576164,2.44515861 13.0585148,3.3269322 L13.0585148,6.06770732 C13.0585148,6.55198654 12.6654675,6.94503386 12.1811883,6.94503386 C11.696909,6.94503386 11.3038617,6.55198654 11.3038617,6.06770732 L11.3038617,3.3269322 C11.3021076,2.45924094 10.5993637,1.75649479 9.73167243,1.75474292 L3.32702249,1.75474292 C2.45933123,1.75649703 1.75658508,2.45924094 1.75483321,3.3269322 L1.75483321,18.6346655 C1.75658732,19.5023567 2.45933123,20.2051026 3.32702249,20.2068545 L9.73167243,20.2068545 C10.5993637,20.2050997 11.3021098,19.5023567 11.3038617,18.6346655 L11.3038617,15.8938903 C11.3038617,15.4096111 11.696909,15.0165638 12.1811883,15.0165638 C12.6654675,15.0165638 13.0585148,15.4096111 13.0585148,15.8938903 L13.0585148,18.6346655 C13.0576366,19.5163941 12.7067038,20.3621419 12.082904,20.9859866 C11.4591042,21.6098313 10.6133562,21.960699 9.73158259,21.9615974 Z" id="Fill-1"></path>
                <path d="M17.0557387,13.7040103 L19.6631023,11.6826241 C19.8762957,11.5159294 20,11.261502 20,10.9912876 C20,10.7210732 19.8762957,10.466648 19.6631023,10.299951 L17.0557387,8.26803114 C16.667947,7.97061785 16.1126048,8.04343267 15.8151915,8.4312154 C15.5177782,8.81900712 15.590593,9.3743493 15.9783757,9.67176259 L16.5714505,10.1314932 L8.44368107,10.1314932 C7.95940185,10.1314932 7.56635453,10.5245405 7.56635453,11.0088197 C7.56635453,11.493099 7.95940185,11.8861463 8.44368107,11.8861463 L16.5678569,11.8861463 L15.9782859,12.3458769 C15.5957723,12.6432902 15.5264612,13.1951286 15.8238745,13.5776647 C16.1212878,13.9602008 16.6731262,14.0294895 17.0556623,13.7320762 L17.0557387,13.7040103 Z" id="Fill-2"></path>
            </g>
        </g>
    </g>
</svg>
